#format: frame checksums
#version: 1
#hash: MD5
#tb 0: 1/25
#stream#, dts,        pts, duration,     size, hash
0,         -1,          0,        1,    21486, e65914581678f7411839a007f1577569
0,          0,          1,        1,    11960, 80bcb8064b1e634f6304c3532176dad9
0,          1,          2,        1,    12759, 106c3402ba1107b1010a422c2cb898d2
0,          2,          3,        1,    11504, 1bc2d3b7e4a578a014a66027b4bae30e
0,          3,          4,        1,    13417, 6e487a57e4c32a7b5b8e2149c0440b87
0,          4,          5,        1,    11855, 29023928e5023fab7403585588dd12c0
0,          5,          6,        1,    12449, 118e1d4b814331e711aa2ef6ad7154c2
0,          6,          7,        1,    11992, 13c88ee49db0097eb007946f83a5ea91
0,          7,          8,        1,    13158, 667d670396910094a22ef6661f04788e
0,          8,          9,        1,    12079, baeeabea2734b6fb269bd7e1421177a1
0,          9,         10,        1,    12803, e6d7af4d5a559e1cc8b28b95be245d20
0,         10,         11,        1,    11740, f1fc3ada25692012872c9c4f04ff786c
0,         11,         12,        1,    20078, 6cd1487c600176c7420018e23f8106a6
0,         12,         13,        1,    12277, 86137a1e469d46a07abe4165ddf6b90b
0,         13,         14,        1,    12305, b7d83f9886f97dc53d3a3c498e3a6ba6
0,         14,         15,        1,    11940, ab7812b6528f52cfc3f235aa8795042e
0,         15,         16,        1,    12679, 09aade87ed25a220160d90a4403b09cc
0,         16,         17,        1,    11894, fd17589b217a119a97da2fcd07758253
0,         17,         18,        1,    12377, 1d52894781e6702a423472a8c87bd180
0,         18,         19,        1,    11871, b834d12c875087da512da696a704068b
0,         19,         20,        1,    12587, 56b7b4c757b4b3448f7191e8b5372d06
0,         20,         21,        1,    13384, 4b29468b4eca318fc6263240208e8231
0,         21,         22,        1,    13580, 4c8b56bb64eb2c669152ad239e0893d1
0,         22,         23,        1,    13383, 93f8eeafd6867abd10c83636ebc6de17
0,         23,         24,        1,    20477, a437ad9fa91494f45d0c4bc5885ca9b6
0,         24,         25,        1,    12003, 7aa06cd652a5fc64aa2b6e93938c8d69
0,         25,         26,        1,    12779, b0437153d93edea83f464b9864af7792
0,         26,         27,        1,    12503, 1261704eb65d0a4bef60c9e2e058037a
0,         27,         28,        1,    13029, 3201a17e7e60195cb05a1c4af4bec069
0,         28,         29,        1,    12438, cae4eebf347855e02e00e96ebc0e0eca
0,         29,         30,        1,    13057, e86efb45b26e7e5b197423090c859c9d
0,         30,         31,        1,    13018, 20bffb773b14c72063e6bc65bf33ebdb
0,         31,         32,        1,    13285, 9fe48e137cab8a68d5fb647c1867dd34
0,         32,         33,        1,    12514, f822b4e2a7c67fd6fcc3ea922b1633a4
0,         33,         34,        1,    13411, df5418955e774374b94d3716e1ddd368
0,         34,         35,        1,    13610, 9d7a28c936abf93ed48fc68e63ea5bba
0,         35,         36,        1,    18936, aa42ed36e08ac359f6d59407b06303c0
0,         36,         37,        1,    13146, 76735166ec7aa062869f4e1dc6588dc4
0,         37,         38,        1,    13053, 905f3454928cf02abd005cb91bf5a609
0,         38,         39,        1,    12905, c7f9ed89299fe628ed10055f0964a578
0,         39,         40,        1,    13115, c6d9e6fa8bcae57619f50b553ac426eb
0,         40,         41,        1,    13002, 069d7ee9134b7f640b15ffa8c4ed91b3
0,         41,         42,        1,    13434, a4088b532e451b510f5715762f1beb68
0,         42,         43,        1,    12950, 954689fc10ca9eff54027f7fe42e4fbd
0,         43,         44,        1,    13174, 1c767d52a7c78404ae33fd6d0da18b0f
0,         44,         45,        1,    14431, 604c65d27382cd2902d1efff83aa53d8
0,         45,         46,        1,    14409, 92bac0ab2c03519f6e0b28b2e5429e94
0,         46,         47,        1,    14167, b72a6d3d0da2860fb6356052642a3d83
0,         47,         48,        1,    19523, ad27f691a85cc0df86f22ff31e5b64a6
0,         48,         49,        1,    13014, ddfad29ef3340616423e16bf2ef314b0
0,         49,         50,        1,    13620, 6517cd12a42112750f7b55e3a1de3f03
0,         50,         51,        1,    13817, 55871b42481884864bce171ea5f6100e
0,         51,         52,        1,    14057, 54247c8819a54f6d046aadae7e64dd8b
0,         52,         53,        1,    13171, 89709ebc5a758a4455cd6df0db5817bc
0,         53,         54,        1,    13687, 29eaf7c04a9f418cbf017ad5a89238cc
0,         54,         55,        1,    13423, 0056d397ac1fedfa33f782837910037b
0,         55,         56,        1,    14311, c9b603d3c306ebdc494d1d09f8abe900
0,         56,         57,        1,    13175, d3f9d217c5e69cd857d65a484876d855
0,         57,         58,        1,    13958, 80ffe89c102822e7e20553d16151e3dc
0,         58,         59,        1,    12929, d1af7c492d9e300e9d0aa391afb9bf08
0,         59,         60,        1,    17949, 641aa8774a8f3fccc4a4a1dc2393ccba
0,         60,         61,        1,    13823, 55ae20809ad60ff9b3873f84105f6db2
0,         61,         62,        1,    13362, b5a81b0bd44d69494217c1d126918022
0,         62,         63,        1,    13217, 0aa73c057599e8e99e53983d63467957
0,         63,         64,        1,    13410, d65f6cfa3e37ff030f62c87049962195
0,         64,         65,        1,    12958, 8647571d19e5c8f1e6e295afd49c39ce
0,         65,         66,        1,    13233, ad7d0e077d11c09d7e532900575bfd82
0,         66,         67,        1,    12774, a5ede8fd01a094092d8f24cc8a158290
0,         67,         68,        1,    13041, f73494fbd8d85f3f6e463849134cda9e
0,         68,         69,        1,    14291, 22941bfd276942b0cf81b263b12b60a5
0,         69,         70,        1,    14212, 3cdc5732a768fa4e05d4ac3a3ab87795
0,         70,         71,        1,    13681, 7ec2490d150b45a3bd75d4218ce54ec9
0,         71,         72,        1,    17928, 673593bd9e8006c3738f0360a0ea9a98
0,         72,         73,        1,    12219, 75b444cea1dedaf9cd6c9db1157da2a1
0,         73,         74,        1,    12926, 32efb6d42b33da98d14cdd2323c7e91e
0,         74,         75,        1,    12862, e103709acd126d8c7b51e8b39e2c96d1
0,         75,         76,        1,    13519, 0f823759ed932565511b3d3921fa2ad7
0,         76,         77,        1,    12596, 5a0a47622d85d083be421207497577af
0,         77,         78,        1,    12950, 867059cb0df1a10b9962533a47955e1d
0,         78,         79,        1,    13045, 9f66af96eaa15b09e4a7b083b20a8719
0,         79,         80,        1,    13334, c2bd011bf100fe752044ae110afc13e1
0,         80,         81,        1,    12802, 487fd77dd97700a1c449418dfc732030
0,         81,         82,        1,    13581, a9f9e864a0745a2ae1d0211eda9443c0
0,         82,         83,        1,    12555, b8fdff25b18f0f623a240ec3e00d6b91
0,         83,         84,        1,    16719, 807cd818c71476cf3af2d89da4d14040
0,         84,         85,        1,    12830, 715f9c3602bb977f1be5926b7fc7386c
0,         85,         86,        1,    12906, c920279cfa72562be5f462427ac4ef39
0,         86,         87,        1,    12993, 623ef393e64edbcf3721e00212b07116
0,         87,         88,        1,    12680, 62305c0c1915944ea3e1ba85b2cd919d
0,         88,         89,        1,    13072, d34dbe5db1c83713a3854078f0efba62
0,         89,         90,        1,    12800, 24a419b0803a825ff7084484dfd6c2a8
0,         90,         91,        1,    12242, 8a1180e2a460dfb0adad625b85a58377
0,         91,         92,        1,    13073, de1259a09829336fa0e84e640d661a88
0,         92,         93,        1,    14408, 4e29c6304f8eaf1490a659cba4d02011
0,         93,         94,        1,    13656, 159ea85d95ef1415e20745d231ab9dc1
0,         94,         95,        1,    13420, 25eaf3cd3f7e386ef7ca31410f1dcd26
0,         95,         96,        1,    18399, 33775a8de31f7598133475c238db61e1
0,         96,         97,        1,    12583, 2766d75b6c580b8c17bd6f3876c72624
0,         97,         98,        1,    12862, 73ef56f95e9a5b8debea1238ef26f622
0,         98,         99,        1,    13004, e9942a52d8ea1da8e12c5e010d7b8920
0,         99,        100,        1,    13966, a9a151c46bd1796cd273299d597d801c
0,        100,        101,        1,    12850, d890f0acc4be73c63f4d304b129fe590
0,        101,        102,        1,    13204, 038ef6ddbb2b5306cd1df8186f9fd8eb
0,        102,        103,        1,    12918, 7a2c8f1405a49559d0351844fd4d9032
0,        103,        104,        1,    13583, 785d66b35536fb5872033f3fa3b171df
0,        104,        105,        1,    13861, 0ca76506be98c44e314de6d7f98a4feb
0,        105,        106,        1,    13723, ce6af8f290b7f09bb91969855843e1d0
0,        106,        107,        1,    13524, 5d1512f2b10c082d32568233a6182d8d
0,        107,        108,        1,    18807, 4e3498a714d5004163662adaf97582c0
0,        108,        109,        1,    13637, 117400c5189287cf312e51b6653f85a1
0,        109,        110,        1,    14125, e2293c05806d94959fd375dbc73189a2
0,        110,        111,        1,    11127, 7094d54633d1e1fe3465100554307f1d
0,        111,        112,        1,    10342, 5219cfdd346aecf448eec7b37e616382
0,        112,        113,        1,    10195, 6f8f621e0d5097060a9e36fc74154f0b
0,        113,        114,        1,    10137, 0926690049abf29020542ffbe224589c
0,        114,        115,        1,    10647, 01517bc0264fb22ec30f77fc71021674
0,        115,        116,        1,    10628, 67e15420d13f0ffd5a8d075401afb8d0
0,        116,        117,        1,    13488, 880f80c000ea67e0c9b4ee1d62bebdca
0,        117,        118,        1,    12475, 1334753a0ef229b4e5c3c62f8df7d477
0,        118,        119,        1,    12563, d96abe063958a9c0cffbe8718024c49b
0,        119,        120,        1,    21539, bd7a3088972be9c8d8e57182571695ae
0,        120,        121,        1,    10690, b480ab4578ed1d86ec1df0db1590b368
0,        121,        122,        1,    10333, 4ea389c0cb6944ea3ff0ee25d349b640
0,        122,        123,        1,    10077, fcc8d5b1293e1e55f359af29d0beb4a5
0,        123,        124,        1,    10056, 48f3c6d333c68e81779914ce837cb878
0,        124,        125,        1,    10309, 4f43122dfa4af3f9d6928925fa78a3ec
